<svg width="20" height="20" viewBox="0 0 20 20" fill="none" xmlns="http://www.w3.org/2000/svg">
<path d="M2.4 8.4C2.4 6.8087 3.03214 5.28258 4.15736 4.15736C5.28258 3.03214 6.8087 2.4 8.4 2.4C9.9913 2.4 11.5174 3.03214 12.6426 4.15736C13.7679 5.28258 14.4 6.8087 14.4 8.4C14.4 9.9913 13.7679 11.5174 12.6426 12.6426C11.5174 13.7679 9.9913 14.4 8.4 14.4C6.8087 14.4 5.28258 13.7679 4.15736 12.6426C3.03214 11.5174 2.4 9.9913 2.4 8.4ZM8.4 0C7.06901 0 5.75706 0.316287 4.57228 0.922796C3.38751 1.52931 2.36381 2.40867 1.58557 3.48843C0.80732 4.56819 0.296798 5.81743 0.0960721 7.13321C-0.104654 8.44898 0.0101636 9.79362 0.431062 11.0563C0.851959 12.319 1.56689 13.4636 2.51693 14.3958C3.46698 15.328 4.62494 16.0211 5.89539 16.4179C7.16585 16.8148 8.51242 16.9041 9.82415 16.6784C11.1359 16.4527 12.3752 15.9186 13.44 15.12C13.4741 15.1654 13.5114 15.2083 13.5516 15.2484L17.1516 18.8484C17.3779 19.067 17.681 19.1879 17.9957 19.1852C18.3103 19.1825 18.6113 19.0563 18.8338 18.8338C19.0563 18.6113 19.1825 18.3103 19.1852 17.9957C19.1879 17.681 19.067 17.3779 18.8484 17.1516L15.2484 13.5516C15.2083 13.5114 15.1654 13.4741 15.12 13.44C16.056 12.192 16.626 10.708 16.7661 9.15437C16.9062 7.60069 16.6108 6.03869 15.9132 4.64341C15.2155 3.24812 14.1431 2.07466 12.8161 1.25453C11.4891 0.434403 9.95998 0 8.4 0Z" fill="#777777"/>
</svg>
